<svg width="265" height="219" viewBox="0 0 265 219" fill="none" xmlns="http://www.w3.org/2000/svg">
<path d="M195.016 153.008C195.004 156.575 192.104 159.457 188.538 159.446C184.971 159.435 182.089 156.535 182.1 152.968C182.111 149.402 185.011 146.52 188.578 146.531C192.144 146.542 195.027 149.442 195.016 153.008Z" fill="#E4E8F1"/>
<path fill-rule="evenodd" clip-rule="evenodd" d="M88.0196 105.711C78.2402 97.2157 62.9925 80.6932 52.6128 69.128C46.0084 61.7692 41.3747 56.4174 41.3747 56.4174C41.3747 56.4174 42.0962 63.441 42.938 73.3125C44.8818 96.1076 47.4674 134.089 43.294 135.842C39.8524 137.289 26.0357 129.452 14.924 122.537C6.72576 117.435 0 112.835 0 112.835L42.0802 212.974L41.8681 213.141C41.8681 213.141 41.9515 213.111 42.1143 213.055L43.0146 215.198C45.1086 213.677 47.1803 212.179 49.2308 210.705C49.5696 210.596 49.9189 210.485 50.2783 210.371L50.5416 210.293C55.5264 208.83 62.6237 206.828 71.0649 204.673C87.959 200.36 110.187 195.447 131.622 193.01C142.555 191.767 152.15 191.42 160.822 191.226C162.369 191.191 163.89 191.161 165.386 191.132L165.39 191.131L165.393 191.131C171.903 191.003 177.941 190.885 183.609 190.417L183.521 218.752L193.521 218.783L193.613 189.094C204.451 187.001 214.304 182.551 224.577 172.753C229.915 167.662 234.728 162.506 238.991 157.559L264.12 157.635L264.151 147.636L247.112 147.583C249.152 144.932 250.996 142.418 252.639 140.096C255.845 135.565 258.291 131.758 259.939 129.078C260.763 127.738 261.388 126.679 261.808 125.952C262.018 125.588 262.178 125.307 262.285 125.116L262.342 125.015C262.369 124.967 262.391 124.927 262.408 124.897L262.44 124.839L262.448 124.823L262.451 124.818L262.452 124.817C262.452 124.817 262.452 124.816 262.068 124.606L262.452 124.816L263.812 122.328L264.074 122.305L263.966 122.046L264.14 121.729L263.838 121.74L221.259 19.8584C221.259 19.8584 219.833 27.9094 217.734 37.3569C214.897 50.1237 210.831 65.4405 207.394 66.8849C203.221 68.6386 177.9 40.211 162.978 22.8697C156.516 15.3599 152.004 9.92917 152.004 9.92917C152.004 9.92917 152.584 16.9844 153.218 26.8519C154.215 42.36 155.346 64.8145 154.571 77.7455C154.559 77.9452 154.546 78.1426 154.533 78.3377C154.175 83.7589 153.46 87.3794 152.227 87.8977C151.188 88.3343 148.413 85.9666 144.537 81.7558C144.424 81.6335 144.311 81.5097 144.197 81.3843C132.287 68.3329 110.48 38.6907 96.305 19.0153C88.3147 7.92411 82.7495 0 82.7495 0C82.7495 0 84.5149 9.52081 86.8453 22.9904C90.9794 46.8851 96.8914 83.2067 97.8792 100.848C97.8886 101.017 97.8977 101.185 97.9063 101.351C98.2015 107.066 97.9509 110.705 96.9119 111.142C95.6785 111.66 92.5919 109.637 88.4687 106.099C88.3901 106.032 88.3111 105.964 88.2318 105.895C88.1613 105.834 88.0906 105.773 88.0196 105.711ZM135.608 157.524C150.9 150.279 164.852 144.724 177.652 140.451C192.132 135.617 205.15 132.42 216.981 130.276C220.548 135.248 222.997 141.217 223.785 147.511H224.12V147.513L242.052 147.568C239.53 150.757 236.739 154.113 233.69 157.543L223.62 157.512L223.619 157.511C222.555 164.264 219.615 170.391 215.35 175.344C205.406 182.744 195.613 185.326 184.149 186.356C182.469 186.507 180.757 186.624 179.005 186.718C165.276 183.162 154.736 171.711 152.499 157.513L135.608 157.524ZM100.047 41.1636C100.686 45.0748 101.328 49.0764 101.954 53.0862C104.105 66.866 106.097 80.9031 107.173 91.7266C107.706 97.0889 108.045 101.96 108.02 105.712C108.008 107.525 107.912 109.544 107.556 111.383C107.382 112.279 107.058 113.618 106.372 115.014C105.759 116.26 104.179 118.935 100.786 120.361C96.4862 122.168 92.6109 120.642 91.536 120.205C89.8794 119.531 88.3605 118.589 87.1447 117.753C84.6438 116.035 81.8153 113.637 78.9664 111.034C73.189 105.756 66.2232 98.612 59.6094 91.5659C57.6892 89.5203 55.7862 87.4694 53.9356 85.4578C54.154 88.4347 54.3648 91.4927 54.5575 94.5606C55.1752 104.397 55.6219 114.551 55.5163 122.505C55.4643 126.427 55.2757 130.181 54.815 133.211C54.5913 134.682 54.2369 136.453 53.5874 138.137C53.1777 139.198 51.5952 143.201 47.168 145.061C44.6942 146.101 42.3691 146.075 41.0129 145.965C39.5216 145.844 38.1224 145.522 36.9567 145.187C34.6226 144.517 32.125 143.473 29.753 142.358C27.142 141.131 24.3053 139.637 21.4357 138.033L47.3658 199.74C86.1795 172.037 117.994 152.415 149.977 138.738C181.19 125.391 212.214 117.851 249.634 113.685L224.23 52.9008C223.375 56.0391 222.466 59.0764 221.525 61.7725C220.661 64.247 219.659 66.7616 218.504 68.8979C217.927 69.9648 217.179 71.19 216.221 72.3399C215.351 73.3858 213.742 75.0645 211.268 76.104C206.841 77.9644 202.874 76.2933 201.829 75.843C200.172 75.1291 198.659 74.1425 197.452 73.273C194.965 71.4815 192.151 68.9886 189.313 66.2811C183.558 60.7903 176.617 53.3646 170.024 46.0397C167.967 43.7551 165.931 41.4645 163.957 39.225C164.099 41.9548 164.232 44.7494 164.349 47.5526C164.754 57.2079 164.982 67.1836 164.709 75.0041C164.574 78.8604 164.307 82.5588 163.785 85.5481C163.531 87.0012 163.141 88.7458 162.463 90.4004C162.023 91.4741 160.4 95.3101 156.101 97.1169C152.708 98.5425 149.691 97.799 148.372 97.3646C146.895 96.878 145.712 96.1724 144.95 95.6691C143.387 94.6369 141.878 93.2926 140.574 92.0323C137.876 89.4248 134.634 85.7732 131.177 81.6397C124.199 73.2965 115.566 62.0496 107.229 50.8695C104.803 47.6162 102.393 44.3575 100.047 41.1636Z" fill="#E4E8F1"/>
</svg>
